<?xml version="1.0" encoding="UTF-8"?>
<svg id="Layer_2" data-name="Layer 2" xmlns="http://www.w3.org/2000/svg" viewBox="0 0 484.03 496.72">
  <defs>
    <style>
      .cls-1 {
        fill: #fdbe00;
      }

      .cls-2 {
        fill: #f48b00;
      }

      .cls-3 {
        fill: #1f0e3a;
      }
    </style>
  </defs>
  <g id="WEATHER">
    <g>
      <path class="cls-1" d="M382.78,296.96s71.22,174.52,30.52,192.98c-.03,0-.05,.02-.08,.03-40.76,18.26-160.35-113.18-160.35-113.18,0,0-171.39,139.3-205.04,108.78-33.66-30.52,53.21-175.31,53.21-175.31,0,0-109.56-104.87-94.69-136.17,14.87-31.3,158.08-19.57,158.08-19.57,0,0,57.92-146.34,99.4-149.47,41.47-3.13,79.23,160.25,79.23,160.25,0,0,124.24-14.69,135.2,22.09,10.96,36.79-95.48,109.57-95.48,109.57Z"/>
      <path class="cls-2" d="M413.22,489.97c-40.76,18.26-160.35-113.18-160.35-113.18,0,0-171.39,139.3-205.04,108.78-33.66-30.52,53.21-175.31,53.21-175.31,0,0-109.56-104.87-94.69-136.17l235.66,74.27,171.21,241.61Z"/>
      <path class="cls-3" d="M483.05,185.97c-5.23-17.55-30.92-27.11-76.36-28.41-25.28-.72-49.99,1.35-59.8,2.31-2.85-11.61-11.38-44.89-23.2-77.57C303.15,25.45,283.45-1.45,263.45,.06c-19.29,1.46-41.96,27.15-69.29,78.55-16.11,30.3-28.9,60.67-32.99,70.66-10.14-.71-39.79-2.49-70.33-1.7-52.75,1.37-81.87,9.34-89.01,24.38-7.19,15.13,6.71,43,42.47,85.2,20.65,24.36,42.74,46.41,50.44,53.96-5.82,10.01-23.16,40.57-37.51,73.35-24.54,56.06-28.71,90.34-12.77,104.81,4.11,3.72,9.74,5.59,16.96,5.59,21.05,0,55.51-15.92,104.29-48.07,38.86-25.61,75.25-54.13,86.65-63.2,8.67,9.28,33.91,35.76,62.17,60.45,40.4,35.29,69.97,52.67,89.78,52.67,4.1,0,7.78-.75,11.06-2.23,19.74-8.95,20.64-44.7,2.75-109.3-10.52-38.01-24.67-74.85-29.23-86.41,7.96-5.64,29.06-21.02,49.09-39.1,35.05-31.65,50.21-56.45,45.07-73.71Zm-51.7,66.23c-24.7,22.32-51.12,40.45-51.39,40.63-1.94,1.33-2.7,3.84-1.81,6.02,.18,.43,17.84,43.88,30.33,89.01,15.44,55.77,16.44,91.32,2.75,97.52-8.4,3.81-31.27,2.54-90.06-48.82-34.41-30.06-64.31-62.82-64.61-63.15-.98-1.08-2.34-1.63-3.7-1.63-1.11,0-2.23,.37-3.15,1.12-.43,.35-43.19,35.02-89.5,65.54-82.02,54.05-103.57,48.37-109.03,43.42-11.84-10.74-6.45-43.88,15.18-93.31,17.18-39.27,38.75-75.36,38.97-75.72,1.2-2,.86-4.57-.83-6.18-.27-.26-27.54-26.43-52.61-56.02C7.73,198.5,8.49,181.24,10.87,176.24c2.4-5.05,15.01-16.97,80.16-18.67,36.97-.97,72.65,1.91,73,1.94,2.19,.17,4.25-1.1,5.06-3.14,.14-.36,14.6-36.75,33.91-73.06C236.08,21.07,255.55,10.69,264.2,10.03c14.05-1.07,32.31,26.49,50.07,75.59,14.36,39.71,23.83,80.39,23.92,80.8,.57,2.48,2.93,4.13,5.46,3.84,.31-.04,31.15-3.63,62.86-2.71,39.44,1.14,63.22,8.69,66.96,21.27,3.83,12.86-11.13,35.37-42.12,63.38Z"/>
    </g>
  </g>
</svg>