<?xml version="1.0" encoding="UTF-8"?>
<svg id="Layer_2" data-name="Layer 2" xmlns="http://www.w3.org/2000/svg" viewBox="0 0 644.4 559.91">
  <defs>
    <style>
      .cls-1 {
        fill: #029ada;
      }

      .cls-2 {
        fill: #d4edff;
      }

      .cls-3 {
        fill: #fdbe00;
      }

      .cls-4 {
        fill: #00c8f6;
      }

      .cls-5 {
        fill: #f48b00;
      }

      .cls-6 {
        fill: #1f0e3a;
      }
    </style>
  </defs>
  <g id="WEATHER">
    <g>
      <path class="cls-2" d="M114.63,418.07c-1.14,.13-2.34,.19-3.61,.19-18.59,0-23.23-13.26-21.72-22.11,1.96-11.53,15.81-38.48,20.31-47.04,.89-1.69,1.41-2.66,1.41-2.66,0,0,19.37,35.9,21.72,49.7,1.4,8.25-2.54,20.32-18.11,21.92Z"/>
      <path class="cls-2" d="M483.81,489.38c-2.01,.44-4.25,.68-6.74,.68-18.59,0-23.22-13.26-21.72-22.11,2.06-12.1,17.22-41.2,20.9-48.17,.53-.98,.82-1.52,.82-1.52,0,0,19.37,35.9,21.72,49.69,1.3,7.66-2,18.63-14.98,21.43Z"/>
      <path class="cls-2" d="M563.79,418.44c-3.05,1.44-6.88,2.3-11.62,2.3-18.59,0-23.23-13.26-21.72-22.11,1.74-10.21,12.8-32.52,18.43-43.43,1.98-3.84,3.29-6.26,3.29-6.26,0,0,19.37,35.9,21.72,49.69,1.12,6.59-1.17,15.64-10.1,19.81Z"/>
      <path class="cls-4" d="M563.79,418.44c-3.05,1.44-6.88,2.3-11.62,2.3-18.59,0-23.23-13.26-21.72-22.11,1.74-10.21,12.8-32.52,18.43-43.43,2.07,2.66,3.29,4.53,3.29,4.53,0,0-11.91,37.73,11.62,58.71Z"/>
      <path class="cls-4" d="M483.81,489.38c-2.01,.44-4.25,.68-6.74,.68-18.59,0-23.22-13.26-21.72-22.11,2.06-12.1,17.22-41.2,20.9-48.17,1.01,5.13,.82,9.27,.82,9.27,0,0-10.8,35.7,6.74,60.33Z"/>
      <path class="cls-4" d="M114.63,418.07c-1.14,.13-2.34,.19-3.61,.19-18.59,0-23.23-13.26-21.72-22.11,1.96-11.53,15.81-38.48,20.31-47.04,1.21,4.84,1.41,8.13,1.41,8.13,0,0-7.55,34.35,3.61,60.83Z"/>
      <polygon class="cls-3" points="350.81 411.77 397.31 439.8 221.55 549.05 212.12 554.91 271.14 448.66 203.26 411.77 249.75 315.15 418.71 315.15 350.81 411.77"/>
      <path class="cls-5" d="M350.81,411.77l46.5,28.03-175.76,109.25c1.97-5,4.3-8.57,4.3-8.57l116.89-99.85-58.96-32.35,97.82-93.13h37.11l-67.9,96.62Z"/>
      <path class="cls-4" d="M639.28,291.08c-1.96,18-15.46,24.07-37.37,24.07H55.65C12.21,315.15-.03,282.47,6.74,260.36c6.78-22.17,28.92-28.18,28.92-28.18-6.12-7.19-7.74-17.92-4.02-26.6,3.73-8.68,12.38-16.04,21.81-16.55-14.53-26.06-20.93-56.84-16.49-86.35,3.91-25.9,16.4-50.62,35.42-68.53,2.64-2.49,5.41-4.85,8.3-7.06C111.52,3.47,155.44-1.73,190.94,14.03c28.99,12.86,51.38,39.26,60.35,69.58h0c13.3-17.89,39.2-10.23,39.2-10.23,17.07-23.37,42.61-40.41,70.74-47.2,15.98-3.87,32.89-4.48,48.87-.58,15.97,3.9,30.96,12.46,41.56,25.04,9.72,11.55,15.46,26.01,18.64,40.77,3.18,14.75,3.94,29.91,4.69,44.98,37.81-16.81,83.35-10.65,114.83,16.19,11.49,9.8,20.68,22.08,27.21,35.68,11.34,23.64,14.6,51.26,7.86,76.65,0,0,16,11.26,14.38,26.17Z"/>
      <path class="cls-1" d="M639.28,291.08c-1.96,18-15.46,24.07-37.37,24.07H55.65C12.21,315.15-.03,282.47,6.74,260.36c6.78-22.17,28.92-28.18,28.92-28.18-6.12-7.19-7.74-17.92-4.02-26.6,3.73-8.68,12.38-16.04,21.81-16.55-14.53-26.06-20.93-56.84-16.49-86.35,3.91-25.9,16.4-50.62,35.42-68.53-8.09,21.55-13.94,55.43-3.04,102.82,20.87,90.79,89.22,95.48,89.22,95.48,0,0,8.87,42.26,51.27,49.05,53.73,8.59,86.47-48.53,86.47-48.53,0,0,5.22,39.13,57.91,54.26,0,0-9.91-31.3,6.53-49.04,16.43-17.74,29.73-19.04,29.73-19.04l24,.78s-14.87,40.7,26.35,68.87c53.15,36.33,161.29-22.11,176.22-100.54,11.34,23.64,14.6,51.26,7.86,76.65,0,0,16,11.26,14.38,26.17Z"/>
      <g>
        <path class="cls-6" d="M630.53,263.02c9.62-41.21-5.2-86.74-37.45-114.24-31.14-26.54-74.95-33.95-113.44-19.67-.69-12.82-1.67-25.91-4.44-38.75-3.75-17.42-10.38-31.87-19.71-42.94-10.86-12.89-26.56-22.37-44.2-26.68-15.9-3.88-33.62-3.69-51.23,.57-28.03,6.77-53.95,23.63-71.6,46.46-6.95-1.35-22.86-3.01-35.01,6.51-3.5-9.27-8.25-18.18-14.16-26.49-12.06-16.98-28.08-30.23-46.32-38.33C174.73,1.37,154.16-1.62,133.48,.83c-20.68,2.45-39.99,10.15-55.84,22.29-24.24,18.55-40.87,47.28-45.62,78.82-4.19,27.79,.75,57.21,13.92,83.56-8.07,2.84-15.19,9.5-18.89,18.11-3.57,8.31-3.05,18.14,1.04,26.15-7.87,3.68-20.93,12.14-26.13,29.14-4.21,13.75-1.52,29.45,7.01,40.98,6.84,9.25,20.49,20.27,46.68,20.27H241.79l-43.04,89.45c-1.16,2.4-.22,5.29,2.12,6.56l63.45,34.48-56.58,101.84c-1.11,1.99-.73,4.48,.92,6.05,.96,.91,2.2,1.38,3.45,1.38,.91,0,1.82-.25,2.64-.75l185.2-115.1c1.48-.92,2.37-2.54,2.36-4.28-.01-1.74-.93-3.35-2.42-4.25l-41.91-25.27,63.33-90.11h180.6c9.71,0,39.24,0,42.34-28.52,1.48-13.59-8.65-24.21-13.72-28.61Zm-283.81,145.87c-.8,1.13-1.09,2.55-.8,3.91s1.12,2.53,2.31,3.25l39.51,23.82-161.89,100.62,49.67-89.4c.65-1.17,.8-2.54,.43-3.82-.37-1.28-1.24-2.36-2.41-3l-63.7-34.62,43.06-89.5h156.19l-62.37,88.74Zm287.59-118.35c-1.11,10.18-5.8,19.6-32.4,19.6h-195.65c-22.4,0-38.86-8.44-46.35-23.75-7.04-14.38-4.81-32.99,5.53-46.31,10.95-14.09,28.88-19.75,49.19-15.52,2.7,.57,5.35-1.17,5.91-3.88,.56-2.7-1.17-5.35-3.88-5.91-24.19-5.04-45.75,1.95-59.13,19.17-12.64,16.27-15.3,39.11-6.62,56.84,2.77,5.66,7.94,13.29,17.18,19.36H55.65c-17.43,0-30.79-5.61-38.64-16.21-6.68-9.03-8.79-21.33-5.49-32.11,5.86-19.15,24.67-24.6,25.45-24.82,1.65-.45,2.96-1.71,3.47-3.35,.51-1.64,.14-3.42-.97-4.72-4.86-5.71-6.18-14.5-3.23-21.38,3.2-7.46,10.56-13.16,17.49-13.54,1.72-.09,3.27-1.07,4.11-2.58,.83-1.51,.83-3.34-.01-4.85-14.44-25.9-20.09-55.44-15.91-83.16,4.37-29,19.61-55.38,41.81-72.37,18.02-13.79,40.98-20.99,63.83-20.99,14.24,0,28.44,2.8,41.37,8.53,33.67,14.94,58.33,49.65,61.35,86.36,1.1,13.4-1.1,23.86-6.55,31.1-5.52,7.33-17.17,11.8-25.07,6.48-2.29-1.54-5.4-.94-6.94,1.35-1.54,2.29-.94,5.4,1.35,6.94,12.71,8.57,30.25,2.39,38.64-8.76,6.97-9.26,9.84-22.02,8.53-37.94-.54-6.53-1.68-13.02-3.4-19.39,11.44-12.43,32.05-6.64,32.25-6.58,2.03,.6,4.21-.14,5.45-1.85,16.29-22.3,41.03-38.81,67.88-45.29,16.07-3.88,32.15-4.08,46.51-.58,15.6,3.81,29.42,12.12,38.92,23.4,8.26,9.81,14.17,22.79,17.58,38.6,3.1,14.4,3.85,29.54,4.58,44.18,.08,1.65,.97,3.15,2.38,4.01,1.4,.86,3.15,.98,4.65,.31,36.52-16.24,79.52-10.18,109.56,15.42,30.22,25.77,43.68,68.87,33.48,107.25-.54,2.02,.24,4.17,1.96,5.37,.14,.1,13.55,9.88,12.28,21.54Z"/>
        <path class="cls-6" d="M137.66,395.31c-2.46-14.44-21.44-49.73-22.25-51.23-.87-1.62-2.56-2.63-4.4-2.63s-3.53,1.01-4.4,2.63c-.81,1.5-19.79,36.79-22.25,51.23-1.17,6.9,.72,14.09,5.07,19.25,3.35,3.97,9.81,8.7,21.57,8.7s18.22-4.73,21.57-8.7c4.35-5.15,6.25-12.35,5.07-19.25h0Zm-12.71,12.79c-2.89,3.42-7.57,5.15-13.93,5.15s-11.05-1.73-13.93-5.15c-2.91-3.45-3.39-8.01-2.86-11.12,1.42-8.36,10.43-27.27,16.79-39.74,6.36,12.47,15.36,31.38,16.79,39.74,.53,3.11,.06,7.67-2.86,11.12Z"/>
        <path class="cls-6" d="M481.47,415.88c-.87-1.62-2.56-2.63-4.4-2.63s-3.53,1.01-4.4,2.63c-.81,1.5-19.79,36.79-22.25,51.23-1.17,6.9,.72,14.09,5.07,19.25,3.35,3.97,9.81,8.7,21.57,8.7s18.22-4.73,21.57-8.7c4.35-5.15,6.25-12.35,5.07-19.25-2.46-14.44-21.44-49.73-22.25-51.23Zm9.53,64.03c-2.89,3.42-7.57,5.15-13.93,5.15s-11.05-1.73-13.93-5.15c-2.91-3.45-3.39-8.01-2.86-11.12,1.42-8.36,10.43-27.28,16.79-39.74,6.36,12.47,15.36,31.38,16.79,39.74,.53,3.11,.06,7.67-2.86,11.12Z"/>
        <path class="cls-6" d="M556.57,346.56c-.87-1.62-2.56-2.63-4.4-2.63s-3.53,1.01-4.4,2.63c-.81,1.5-19.79,36.79-22.25,51.23-1.17,6.9,.72,14.09,5.07,19.25,3.35,3.97,9.81,8.7,21.57,8.7s18.22-4.73,21.57-8.7c4.35-5.15,6.25-12.35,5.07-19.25-2.46-14.44-21.44-49.74-22.25-51.23Zm9.53,64.03c-2.89,3.42-7.57,5.15-13.93,5.15s-11.05-1.73-13.93-5.15c-2.91-3.45-3.39-8.01-2.86-11.12,1.42-8.36,10.43-27.27,16.79-39.74,6.36,12.47,15.37,31.38,16.79,39.74,.53,3.11,.06,7.67-2.86,11.12Z"/>
      </g>
    </g>
  </g>
</svg>