<?xml version="1.0" encoding="UTF-8"?>
<svg id="Layer_2" data-name="Layer 2" xmlns="http://www.w3.org/2000/svg" viewBox="0 0 617.4 635.69">
  <defs>
    <style>
      .cls-1 {
        fill: #fdbe00;
      }

      .cls-2 {
        fill: #f48b00;
      }

      .cls-3 {
        fill: #1f0e3a;
      }
    </style>
  </defs>
  <g id="WEATHER">
    <g>
      <g>
        <circle class="cls-1" cx="304.65" cy="316.2" r="184.7"/>
        <path class="cls-1" d="M280.39,10.59c22.21-15.27,52.96,2.74,58.3,28.57,5.06,24.44-10.63,68.04-38.74,66.13-40.3-2.74-46.7-76.04-19.57-94.7Zm329.75,379.25c-12.21-30.57-85.12-40.5-96.68-1.79-8.06,27,31.01,51.91,55.96,52.36,26.37,.48,50.71-25.55,40.71-50.57Zm-303.58,140.57c-28.11-1.94-43.85,41.64-38.82,66.08,5.32,25.83,36.04,43.88,58.27,28.64,27.15-18.62,20.85-91.93-19.45-94.72ZM104.2,224.14c7.53-27.15-32.01-51.3-56.97-51.27-26.37,.04-50.21,26.53-39.72,51.36,12.8,30.33,85.89,38.84,96.7-.09Zm83.84-87.68c19.57-13.17-27.78-93.78-49.04-81.3-19.94,11.71,26.94,96.18,49.04,81.3Zm384.15,27.56c-8.54-21.49-99.16,11.99-87.81,36.1,10.04,21.34,96.92-13.19,87.81-36.1Zm-132.15,319.63c-18.79,14.26,33.04,92.06,53.56,78.4,19.25-12.82-32.33-94.51-53.56-78.4Zm-247.15,21.18c-20.31-12-72.72,65.42-52.3,79.24,19.15,12.97,75.24-65.69,52.3-79.24ZM439.83,98.52c-20.17-16.24-36.82,21.5-25.02,30.53,17.01,13.02,45.58-13.98,25.02-30.53Zm83.12,179.42c-.19,21.42,38.55,28.05,39.44,1.68,.87-25.88-39.3-16.53-39.44-1.68ZM90.35,474.84c15.6,20.67,40.95-11.87,31.72-23.5-13.32-16.78-47.61,2.44-31.72,23.5Zm-46.05-114.81c3.91,25.6,41.67,9.02,39.07-5.61-3.75-21.09-43.05-20.48-39.07,5.61Z"/>
        <path class="cls-2" d="M487.57,341.91c-12.52,89.83-89.64,158.98-182.92,158.98-102.01,0-184.7-82.69-184.7-184.69,0-67.97,36.71-127.36,91.39-159.43-8.39,20.09-13.03,42.14-13.03,65.28,0,93.59,75.87,169.46,169.46,169.46,46.78,0,89.13-18.96,119.8-49.6Z"/>
        <path class="cls-2" d="M313.11,89.28c-32.93-2.24-43.22-51.59-31.07-79.75-.55,.33-1.1,.69-1.65,1.06-27.13,18.65-20.74,91.95,19.56,94.69,13.44,.91,24.05-8.58,30.9-21.42-5.14,3.78-11.09,5.87-17.74,5.42Zm269.47,335.12c-24.95-.45-64.02-25.36-55.96-52.36,.2-.65,.41-1.29,.64-1.92-6.48,4.09-11.43,9.98-13.8,17.92-8.06,27,31,51.92,55.96,52.37,17.06,.3,33.27-10.48,39.88-24.91-7.55,5.65-17,9.08-26.72,8.9Zm-301.69,156.08c-2.62-12.74,.4-30.67,7.87-44.64-16.61,12.2-24.87,41.99-21.03,60.64,5.32,25.84,36.04,43.88,58.27,28.64,4.97-3.41,8.82-8.66,11.54-14.97-22.06,13.34-51.46-4.46-56.65-29.67ZM20.67,208.22c-3.82-9.04-3.09-18.31,.67-26.43-13.15,9.87-20.57,26.49-13.84,42.43,12.53,29.67,82.71,38.45,95.9,2.42-24.94,15.87-72.62,5.53-82.73-18.42ZM192.51,121.85c-17.98-4.13-42.3-44.17-44.94-67.46-3.13-.89-6.03-.72-8.57,.77-19.95,11.71,26.93,96.18,49.04,81.3,3.89-2.62,5.14-7.92,4.47-14.61Zm305.03,62.27c-1-2.12-1.21-4.31-.75-6.53-10.02,7.19-15.82,15.28-12.41,22.53,9.23,19.63,83.46-8,88.23-30.39-22.96,16.78-68.01,29.39-75.07,14.39Zm-.14,362.95c-18.22-5.05-44.72-42.78-47.91-65.13-3.51-.81-6.73-.36-9.45,1.71-18.79,14.26,33.04,92.06,53.56,78.4,3.92-2.61,4.9-8.07,3.8-14.98Zm-343.65,21c-10.57-7.16-1.61-31.37,12.31-51.39-20.15,20.34-39.15,58.13-25.47,67.39,9.42,6.38,27.79-9.42,41.27-28.73-10.59,10.82-21.53,17.19-28.11,12.73ZM427.97,113.04c-4.39-3.35-4.84-10.68-2.65-17.72-12.37,4.56-19.26,27.04-10.51,33.73,12.02,9.2,29.82-1.59,31.96-14.55-6.03,2.77-13.07,2.92-18.8-1.46Zm108.39,151.87c-7.33,2.38-13.35,7.3-13.41,13.03-.19,21.22,37.79,27.92,39.4,2.45-10.63,2.23-24.09-4.06-25.99-15.48ZM103.52,458.83c-3.17-4.2-4.34-8.32-4.09-12.1-10.65,4.32-18.29,15.9-9.08,28.11,11.51,15.24,28.33,1.53,32.65-11.38-6.29,3.4-13.58,3.19-19.48-4.63Zm-20.09-103.99c-10.49,4.66-23.74,3.79-25.97-10.82-.21-1.37-.3-2.66-.27-3.89-8.16,2.02-14.62,8.54-12.89,19.89,3.87,25.36,40.95,9.33,39.13-5.18Z"/>
      </g>
      <g>
        <path class="cls-3" d="M304.65,505.9c104.6,0,189.7-85.1,189.7-189.7s-85.1-189.7-189.7-189.7S114.95,211.6,114.95,316.2s85.1,189.7,189.7,189.7Zm0-369.39c99.08,0,179.7,80.61,179.7,179.7s-80.61,179.7-179.7,179.7-179.7-80.61-179.7-179.7,80.61-179.7,179.7-179.7Z"/>
        <path class="cls-3" d="M299.61,110.28c.71,.05,1.42,.07,2.12,.07,9.58,0,18.51-4.45,25.94-12.97,12.77-14.64,19.76-40.66,15.91-59.23-3.18-15.34-14.81-29.1-29.64-35.06-12.62-5.07-25.88-3.83-36.39,3.39-18.64,12.81-22.01,44.15-15.72,67.12,6.05,22.09,19.82,35.46,37.78,36.68Zm-16.39-95.56c4.58-3.15,9.77-4.74,15.22-4.74,3.84,0,7.81,.79,11.78,2.39,11.81,4.75,21.06,15.66,23.58,27.81,3.23,15.59-2.9,38.3-13.65,50.63-5.93,6.79-12.61,9.99-19.85,9.5-19.11-1.3-26.51-20.96-28.81-29.35-6.12-22.35-.85-47.58,11.74-56.24Z"/>
        <path class="cls-3" d="M614.78,387.98c-8.39-21-38.22-31.2-62.01-30.13-22.88,1.03-38.96,11.51-44.11,28.76-2.98,9.97-.76,20.42,6.4,30.22,11.46,15.68,35.3,28.23,54.27,28.57,.26,0,.52,0,.78,0,15.41,0,31.03-8.26,39.96-21.19,7.73-11.19,9.44-24.4,4.71-36.24Zm-12.94,30.56c-7.23,10.47-19.92,17.08-32.33,16.87-15.91-.29-36.72-11.27-46.38-24.48-5.32-7.28-6.97-14.5-4.89-21.46,5.48-18.35,26.28-21.24,34.98-21.63,1.04-.05,2.09-.07,3.13-.07,22.1,0,43.72,10.37,49.14,23.92,3.52,8.81,2.22,18.34-3.65,26.85Z"/>
        <path class="cls-3" d="M306.9,525.42c-10.38-.72-20.09,3.73-28.08,12.87-12.79,14.62-19.81,40.63-15.98,59.21,3.16,15.34,14.78,29.12,29.6,35.1,5.14,2.07,10.38,3.1,15.51,3.1,7.45,0,14.65-2.17,20.89-6.45,18.65-12.79,22.06-44.12,15.8-67.1-6.02-22.1-19.77-35.49-37.73-36.73Zm16.28,95.58c-7.82,5.36-17.41,6.19-27,2.32-11.8-4.76-21.04-15.69-23.55-27.84-3.21-15.59,2.94-38.3,13.71-50.61,5.53-6.33,11.71-9.52,18.39-9.52,.49,0,.98,.02,1.47,.05,19.11,1.32,26.49,20.99,28.77,29.38,6.09,22.36,.8,47.58-11.81,56.23Z"/>
        <path class="cls-3" d="M65.48,255.09c22.86-1.47,38.73-12.27,43.54-29.61,2.78-10.03,.37-20.43-6.98-30.09-11.75-15.44-35.79-27.52-54.75-27.52h-.06c-15.67,.02-31.49,8.65-40.32,21.97-7.51,11.34-8.97,24.58-4.01,36.33,8.19,19.4,34.78,29.07,57.6,29.07,1.68,0,3.35-.05,4.98-.16ZM12.11,222.28c-3.69-8.74-2.58-18.3,3.13-26.92,7.03-10.61,19.59-17.48,31.99-17.49h.05c15.91,0,36.89,10.57,46.79,23.57,5.46,7.17,7.25,14.36,5.3,21.36-5.12,18.45-25.87,21.75-34.55,22.31-23.12,1.5-46.78-8.75-52.72-22.83Z"/>
        <path class="cls-3" d="M172.51,140.59c3.72,1.91,6.97,2.63,9.76,2.63,3.66,0,6.51-1.23,8.56-2.61,15.64-10.53,1.35-42.66-9.55-59.99-12.46-19.79-30.78-38.01-44.81-29.77-3.48,2.04-7.56,6.58-7.28,16.6,.6,21.57,22.55,62.45,43.33,73.13Zm-30.98-81.12c.67-.39,1.47-.59,2.37-.59,6.22,0,17.66,9.18,28.91,27.06,14.26,22.66,18,42.62,12.43,46.37-.75,.5-3.02,2.03-8.16-.61-15.75-8.1-37.36-44.88-37.91-64.52-.06-2.32,.15-6.41,2.35-7.7Z"/>
        <path class="cls-3" d="M500.2,211.87c13.16,0,29.38-5.15,40.4-9.92,21.46-9.3,42.25-24.63,36.24-39.76-1.49-3.75-5.35-8.48-15.3-9.72-21.41-2.68-65.15,12.78-78.88,31.69-5.68,7.82-4.66,14.16-2.8,18.11,3.32,7.05,11.07,9.61,20.34,9.61Zm-9.45-21.85c9.68-13.33,44.65-27.9,65.18-27.9,1.54,0,3,.08,4.36,.25,2.31,.29,6.32,1.13,7.26,3.49,2.25,5.66-8.71,17.26-30.92,26.9-24.56,10.65-44.86,11.3-47.72,5.23-.38-.81-1.55-3.29,1.85-7.97Z"/>
        <path class="cls-3" d="M455.31,478.65c-8.83-3.93-14.82-1.61-18.29,1.02-15.02,11.4,1.06,42.67,12.93,59.35,11,15.46,25.78,29.66,38.21,29.66,2.89,0,5.66-.77,8.22-2.48,3.36-2.23,7.18-7,6.33-16.99-1.82-21.5-26.04-61.07-47.39-70.57Zm35.52,79.24c-5.07,3.37-18.7-4.93-32.73-24.66-15.52-21.81-20.38-41.53-15.03-45.59,.72-.54,2.9-2.2,8.18,.15,16.18,7.2,39.83,42.7,41.49,62.28,.2,2.32,.21,6.41-1.91,7.82Z"/>
        <path class="cls-3" d="M195.43,500.53h0c-16.23-9.59-39.1,17.13-50.05,34.43-12.51,19.76-21.08,44.13-7.6,53.26,1.81,1.22,4.35,2.29,7.72,2.29,2.86,0,6.3-.77,10.4-2.86,19.22-9.82,46.68-47.21,47.39-70.57,.29-9.66-4.11-14.33-7.87-16.55Zm-2.13,16.24c-.54,17.7-24.45,53.03-41.95,61.97-2.07,1.06-5.86,2.62-7.96,1.19-5.04-3.41-2.51-19.17,10.44-39.63,12.7-20.06,27.05-31.74,34.17-31.74,.91,0,1.69,.19,2.35,.57,.77,.46,3.13,1.85,2.96,7.63Z"/>
        <path class="cls-3" d="M411.77,133.02c4.03,3.09,8.58,4.42,13.11,4.42,8.35,0,16.68-4.53,21.77-11.02,6.9-8.8,8.44-22.04-3.68-31.8-6.27-5.05-13.31-6.41-19.81-3.83-9.89,3.92-15.74,15.45-17,24.5-1.07,7.72,.98,14.18,5.61,17.72Zm4.29-16.35c1.01-7.3,5.75-14.58,10.78-16.57,.97-.39,1.95-.58,2.95-.58,2.22,0,4.5,.96,6.91,2.9,8.9,7.16,4.42,14.86,2.09,17.84-4.92,6.26-14.32,9.89-20.94,4.82-1.64-1.26-2.33-4.48-1.78-8.41Z"/>
        <path class="cls-3" d="M528.76,262.77c-6.81,3.78-10.75,9.29-10.8,15.13-.13,14.44,13.51,23.66,26.22,23.93,.19,0,.38,0,.57,0,11,0,22.13-6.76,22.64-22.05,.27-8.05-2.87-14.49-8.84-18.14-9.07-5.55-21.81-3.31-29.79,1.12Zm15.63,29.06c-7.96-.17-16.51-5.51-16.43-13.85,.02-2.07,2.18-4.55,5.65-6.47,3.7-2.05,8.14-3.12,12.12-3.12,2.94,0,5.64,.58,7.6,1.79,2.88,1.76,4.21,4.8,4.06,9.27-.38,11.42-9.21,12.46-13.01,12.38Z"/>
        <path class="cls-3" d="M90.55,446.11c-8.84,6.85-13.56,19.31-4.19,31.74,4.28,5.68,9.85,8.71,15.87,8.71,.8,0,1.6-.05,2.41-.16,10.55-1.39,19.04-11.14,22.46-19.61,2.92-7.22,2.51-13.99-1.12-18.56-8.98-11.3-25.38-9.9-35.44-2.12Zm27.28,16.93c-2.76,6.83-9.13,12.74-14.5,13.44-3.35,.44-6.29-1.08-8.99-4.66-6.88-9.12-.66-15.49,2.33-17.81,3.26-2.52,7.5-4.07,11.56-4.07,3.79,0,7.42,1.35,9.92,4.5,1.29,1.62,1.16,4.91-.32,8.59Z"/>
        <path class="cls-3" d="M88.3,353.54c-2.53-14.21-17.63-20.77-30.17-18.7-11.03,1.82-21.11,10.55-18.77,25.94,1.21,7.96,5.48,13.71,12.02,16.21,2.53,.96,5.2,1.39,7.9,1.39,7.88,0,15.94-3.63,21.18-7.97,6-4.97,8.86-11.11,7.84-16.86Zm-14.21,9.16c-5.68,4.7-14.09,6.87-19.14,4.94-3.16-1.2-5.02-3.94-5.7-8.37-1.72-11.29,6.78-13.95,10.51-14.56,1.03-.17,2.09-.25,3.15-.25,7.03,0,14.28,3.71,15.55,10.84,.36,2.04-1.31,4.88-4.37,7.4Z"/>
      </g>
    </g>
  </g>
</svg>