<?xml version="1.0" encoding="UTF-8"?>
<svg id="Layer_2" data-name="Layer 2" xmlns="http://www.w3.org/2000/svg" viewBox="0 0 679.32 425.91">
  <defs>
    <style>
      .cls-1 {
        fill: #029ada;
      }

      .cls-2 {
        fill: #00c8f6;
      }

      .cls-3 {
        fill: #1f0e3a;
      }
    </style>
  </defs>
  <g id="WEATHER">
    <g>
      <path class="cls-2" d="M674.09,219.94c-1.55,24.55-12.75,50.74-35.29,60.6,.93,17.55-6.07,36.41-16.63,50.47-10.55,14.06-25.01,24.85-40.65,32.89-49.56,25.47-112.56,22.5-159.5-7.52,0,0-26.97,17.71-53.66-4.45-1.01-.84-2.03-1.74-3.04-2.7-6.27,11.99-14.83,22.89-24.96,31.69-28.48,24.76-66.83,35.3-104.41,38.76-33.2,3.05-67.74,.93-97.98-13.09-30.24-14.03-55.55-41.51-60.59-74.47-25.55-9.03-53.49-21.55-65.75-45.7-5.51-10.85-7.12-23.24-6.5-35.47,0,0-.01,0,0-.01,.14-2.7,.38-5.39,.72-8.06,3-23.8,13.2-46.56,28.58-64.95,7.2-8.63,15.55-16.3,24.83-22.67,29.06-19.95,66.76-26.79,100.98-18.34,11.78-39.25,37.73-74.41,71.21-98.05C264.93,15.24,306.43,3.19,347.36,5.23c22.49,1.12,45.37,6.66,63.52,19.99,18.15,13.33,30.82,35.37,28.95,57.81,0,0,35.57-15.33,62.43,22.98,20.18-14.28,46.58-18.03,70.95-13.81,23.92,4.13,46.45,15.7,63.94,32.53,3.91,3.74,7.57,7.77,10.94,12.03,18.42,23.31,27.86,53.53,26,83.18Z"/>
      <path class="cls-1" d="M674.09,219.94c-1.55,24.55-12.75,50.74-35.29,60.6,.93,17.55-6.07,36.41-16.63,50.47-10.55,14.06-25.01,24.85-40.65,32.89-49.56,25.47-112.56,22.5-159.5-7.52,0,0-26.97,17.71-53.66-4.45,0,0,12.07-30.73,7.42-58.68,0,0,28.7,9.45,52.7-20.32,0,0,15.13,55.8,98.6,46.41,69.19-7.78,135.52-94.64,110.07-194.61,3.91,3.74,7.57,7.77,10.94,12.03,18.42,23.31,27.86,53.53,26,83.18Z"/>
      <path class="cls-1" d="M365.32,349.23c-6.27,11.99-14.83,22.89-24.96,31.69-28.48,24.76-66.83,35.3-104.41,38.76-33.2,3.05-67.74,.93-97.98-13.09-30.24-14.03-55.55-41.51-60.59-74.47-25.55-9.03-53.49-21.55-65.75-45.7-5.51-10.85-7.12-23.24-6.5-35.47,8.42,9.39,19.23,17.46,33.09,23,70.43,28.17,109.56-11.48,109.56-11.48-18.26,91.31,72.52,108.52,123.13,92.35s53.74-61.57,53.74-61.57c-7.57-16.63-.46-37.17,9.91-39.32,10.37-2.15,26.61-4.11,39.13,28.37,12.53,32.48-8.37,66.93-8.37,66.93Z"/>
      <path class="cls-3" d="M652.02,133.66c-19.13-24.22-47.54-41.13-77.96-46.39-25.73-4.45-51.16-.09-70.61,11.96-14.34-18.18-30.62-23.17-42.09-24.07-6.55-.51-12.25,.23-16.39,1.13-.79-20.67-12.28-41.28-31.13-55.11C396.72,8.62,374.44,1.57,347.61,.23c-42.23-2.1-84.5,10.17-119.04,34.56-33.29,23.5-59.22,58.38-71.72,96.24-34.31-7.11-71.51,.27-100.42,20.1C26.24,171.85,5.48,205.92,.89,242.25c-2.28,18.1-.17,33.72,6.28,46.43,12.6,24.81,39.99,37.84,65.77,47.16,5.95,31.27,29.8,59.92,62.92,75.28,21.34,9.9,45.85,14.79,74.4,14.79,8.36,0,17.06-.42,26.14-1.25,45.47-4.19,81.55-17.63,107.24-39.96,9.3-8.09,17.05-17.51,23.08-27.67,23.4,18.19,47.04,9.19,55.12,5.15,26.03,15.95,56.4,24.03,86.77,24.03,25.97,0,51.95-5.91,75.2-17.86,17.92-9.21,32.17-20.76,42.36-34.33,11.22-14.94,17.71-33.52,17.71-50.36,23.71-12.25,33.76-40.44,35.2-63.4,1.93-30.81-7.93-62.37-27.06-86.59Zm17.08,85.96c-1.32,20.98-10.5,46.8-32.3,56.33-1.91,.83-3.1,2.77-2.99,4.85,.82,15.43-5.02,33.08-15.63,47.21-9.27,12.35-22.37,22.93-38.94,31.44-48.21,24.78-108.86,21.92-154.53-7.28-1.65-1.06-3.78-1.04-5.42,.02-1.02,.66-24.34,15.31-47.76-4.14,10.91-22.9,13.39-48.44,5.5-70.45-4.08-11.39-10.15-19.78-18.02-24.93-10.13-6.62-23.31-6.83-32.06-.51-7.18,5.19-11.45,14.59-11.41,25.15,.04,8.86,2.85,17.35,5.34,24.84,.87,2.62,3.7,4.04,6.32,3.17,2.62-.87,4.04-3.7,3.17-6.32-2.36-7.12-4.8-14.47-4.83-21.74-.03-7.34,2.69-13.69,7.26-17,5.38-3.89,14.1-3.56,20.73,.77,6.01,3.93,10.75,10.64,14.08,19.94,7.3,20.36,4.51,44.23-6.38,65.41-.26,.37-.47,.76-.62,1.18-5.78,10.9-13.71,21.05-23.54,29.59-24.07,20.93-58.25,33.56-101.59,37.55-38.26,3.52-69.47-.61-95.41-12.65-31.16-14.45-53.29-41.54-57.75-70.69-.28-1.82-1.54-3.34-3.28-3.96-24.7-8.73-51.5-20.7-62.96-43.25-5.53-10.89-7.31-24.57-5.28-40.65,4.23-33.55,23.41-65,51.28-84.13,27.88-19.13,64.12-25.71,96.94-17.6,2.59,.64,5.22-.86,5.99-3.42,11.25-37.47,36.51-72.24,69.31-95.4,32.72-23.1,72.78-34.72,112.78-32.74,24.84,1.24,45.3,7.64,60.81,19.03,17.96,13.19,28.53,34.13,26.92,53.37-.15,1.75,.64,3.45,2.06,4.47,1.43,1.03,3.29,1.23,4.9,.53,.31-.13,29.67-12.3,53.48,17.42-20.24,16.51-30.66,42.5-26.13,66.2,.52,2.71,3.14,4.49,5.85,3.97,2.71-.52,4.49-3.14,3.97-5.85-4.04-21.13,6.72-45.5,26.17-59.27,17.74-12.56,42.24-17.29,67.21-12.97,28.02,4.84,54.19,20.42,71.82,42.73,17.62,22.31,26.71,51.39,24.93,79.77Z"/>
    </g>
  </g>
</svg>