<?xml version="1.0" encoding="UTF-8"?>
<svg id="Layer_2" data-name="Layer 2" xmlns="http://www.w3.org/2000/svg" viewBox="0 0 535.42 581.03">
  <defs>
    <style>
      .cls-1 {
        fill: #029ada;
      }

      .cls-2 {
        fill: #fdbe00;
      }

      .cls-3 {
        fill: #d65238;
      }

      .cls-4 {
        fill: #bc3320;
      }

      .cls-5 {
        fill: #00c8f6;
      }

      .cls-6 {
        fill: #f48b00;
      }

      .cls-7 {
        fill: #1f0e3a;
      }
    </style>
  </defs>
  <g id="WEATHER">
    <g>
      <rect class="cls-5" x="253.73" y="218.73" width="27.97" height="204.78"/>
      <rect class="cls-1" x="253.73" y="218.73" width="13.98" height="204.78"/>
      <path class="cls-3" d="M288.21,429.92v88.34c0,26.29-15.33,47.97-39.06,55.22-5.62,1.72-11.33,2.55-17.02,2.55-13.65,0-27.15-4.8-38.84-13.72-8.68-6.62-10.02-18.53-4.37-26.91,1.38-2.06,3.19-3.9,5.41-5.4l.99-.67c7.06-4.76,16.29-4.42,23.15,.62,6.93,5.1,13.87,5.79,18.69,4.32,6.48-1.98,10.05-7.67,10.05-16.01v-88.34c0-3.82,3.09-6.91,6.91-6.91h27.17c3.82,0,6.92,3.09,6.92,6.91Z"/>
      <path class="cls-4" d="M265.62,423.01v84.9c0,39.87-33.63,66.41-76.7,27.49,1.38-2.06,3.19-3.9,5.41-5.4l.99-.67c7.06-4.76,16.29-4.42,23.15,.62,6.93,5.1,13.87,5.79,18.69,4.32,6.48-1.98,10.05-7.67,10.05-16.01v-88.34c0-3.82,3.09-6.91,6.91-6.91h11.5Z"/>
      <path class="cls-5" d="M253.73,18.98v21.06h27.97V18.98c0-7.72-6.26-13.98-13.98-13.98h0c-7.72,0-13.98,6.26-13.98,13.98Z"/>
      <path class="cls-2" d="M530.42,258.56c-21.35-12.35-45.98-19.4-72.2-19.4-28.51,0-55.14,8.34-77.72,22.77-29.44-25.8-69.12-41.63-112.79-41.63s-83.35,15.83-112.79,41.63c-22.59-14.43-49.21-22.77-77.72-22.77-26.22,0-50.85,7.05-72.2,19.4C20.18,131.97,124.72,32.86,253.73,26.15c4.63-.25,9.29-.37,13.98-.37s9.35,.12,13.98,.37c129.01,6.71,233.55,105.82,248.73,232.41Z"/>
      <path class="cls-6" d="M530.42,258.56c-21.35-12.35-45.98-19.4-72.2-19.4-28.51,0-55.14,8.34-77.72,22.77-29.44-25.8-69.12-41.63-112.79-41.63s-83.35,15.83-112.79,41.63c-22.59-14.43-49.21-22.77-77.72-22.77-26.22,0-50.85,7.05-72.2,19.4,7.36-61.37,35.71-116.27,77.67-157.32,53.47,61.52,139.18,101.38,235.78,101.38,65.76,0,126.48-18.47,175.41-49.67,19.18,31.48,31.96,67.28,36.56,105.61Z"/>
      <path class="cls-3" d="M154.92,261.93c-22.59-14.43-49.21-22.77-77.72-22.77-26.22,0-50.85,7.05-72.2,19.4C20.18,131.97,124.72,32.86,253.73,26.15c-104.93,89.96-98.81,235.78-98.81,235.78Z"/>
      <path class="cls-3" d="M530.42,258.56c-21.35-12.35-45.98-19.4-72.2-19.4-28.51,0-55.14,8.34-77.72,22.77,0,0,6.12-145.82-98.81-235.78,129.01,6.71,233.55,105.82,248.73,232.41Z"/>
      <path class="cls-4" d="M154.92,261.93c-22.59-14.43-49.21-22.77-77.72-22.77-26.22,0-50.85,7.05-72.2,19.4,7.36-61.37,35.71-116.27,77.67-157.32,22.97,26.43,51.89,48.86,85.07,65.85-14.58,52.84-12.82,94.84-12.82,94.84Z"/>
      <path class="cls-4" d="M530.42,258.56c-21.35-12.35-45.98-19.4-72.2-19.4-28.51,0-55.14,8.34-77.72,22.77,0,0,1.11-26.52-5.75-63.92,44.01-7.3,84.51-23,119.11-45.06,19.18,31.48,31.96,67.28,36.56,105.61Z"/>
      <path class="cls-7" d="M535.39,257.96c-15.45-128.9-120.74-227.58-248.7-236.52v-2.46c0-10.47-8.51-18.98-18.98-18.98-5.09,0-9.86,1.98-13.4,5.55-3.6,3.57-5.58,8.34-5.58,13.43v2.46C120.78,30.39,15.49,129.07,.04,257.96c-.22,1.88,.63,3.73,2.21,4.77,1.58,1.04,3.62,1.1,5.26,.15,21.18-12.25,45.28-18.73,69.7-18.73,26.57,0,52.51,7.6,75.03,21.98,.24,.15,.48,.27,.73,.38,.07,.03,.15,.05,.22,.08,.2,.08,.41,.14,.62,.19,.08,.02,.16,.04,.24,.05,.29,.05,.58,.09,.87,.09,0,0,.01,0,.02,0,.06,0,.13,0,.19,0,.08,0,.16-.03,.24-.03,.21-.02,.41-.04,.62-.09,.13-.03,.25-.06,.37-.1,.18-.05,.35-.11,.52-.19,.12-.05,.24-.11,.36-.17,.16-.08,.31-.17,.45-.27,.12-.08,.23-.16,.34-.24,.06-.05,.13-.08,.19-.14,25.08-21.98,56.69-35.62,90.51-39.35v192.97c-3.86,1.97-6.52,5.98-6.52,10.61v88.34c0,6.13-2.19,9.91-6.51,11.23-1.56,.48-7.21,1.63-14.27-3.56-8.58-6.31-20.2-6.61-28.9-.74l-.99,.67c-6.75,4.55-10.76,11.84-11,19.99-.24,8.09,3.31,15.54,9.73,20.44,12.65,9.65,27.13,14.75,41.88,14.75,6.25,0,12.46-.93,18.48-2.77,25.88-7.91,42.6-31.46,42.6-60v-88.34c0-4.63-2.66-8.64-6.52-10.61V226.34c33.83,3.73,65.43,17.37,90.51,39.35,.06,.06,.14,.1,.21,.15,.09,.07,.17,.13,.26,.19,.17,.12,.34,.22,.52,.31,.09,.05,.17,.09,.26,.13,.24,.11,.49,.2,.75,.27,.03,0,.07,.02,.1,.03,.3,.07,.62,.12,.93,.13,.02,0,.04,0,.06,0,.07,0,.14,0,.21,0,.05,0,.1-.01,.15-.01,.21,0,.43-.03,.64-.06,.09-.02,.19-.03,.28-.05,.22-.05,.43-.12,.65-.19,.07-.03,.14-.04,.21-.07,.26-.11,.52-.24,.77-.4,22.5-14.38,48.45-21.98,75.03-21.98,24.42,0,48.52,6.48,69.7,18.73,1.64,.95,3.67,.89,5.26-.15,1.58-1.04,2.44-2.89,2.21-4.77Zm-169.87-79.31c7.74,31.74,9.58,58.66,9.96,72.68-30.31-23.31-68.16-36.04-107.76-36.04s-77.45,12.73-107.76,36.04c.38-14.02,2.22-40.94,9.96-72.69,10.33-42.37,33.61-102.2,85.81-147.6,3.98-.18,7.97-.27,11.99-.27s8.01,.09,11.99,.27c52.2,45.4,75.48,105.23,85.81,147.6ZM261.38,12.62c1.68-1.69,3.92-2.62,6.33-2.62,4.95,0,8.98,4.03,8.98,8.98v1.97c-2.98-.1-5.97-.17-8.98-.17s-6,.07-8.98,.17v-1.97c0-2.4,.93-4.65,2.65-6.36ZM11.3,249.53C29.61,133.45,124.01,44.83,239.55,32.31c-47.56,45.9-69.42,103.08-79.43,144.28-8.34,34.35-9.99,62.69-10.24,76.51-22.25-12.41-47.19-18.94-72.68-18.94-22.84,0-45.43,5.29-65.9,15.37Zm271.91,268.73c0,24.04-13.94,43.84-35.52,50.44-5.06,1.55-10.29,2.33-15.55,2.33-12.54,0-24.92-4.39-35.81-12.7-3.82-2.92-5.93-7.36-5.79-12.19,.14-4.89,2.55-9.26,6.59-11.99l.99-.67c2.48-1.67,5.36-2.5,8.26-2.5,3.19,0,6.41,1.01,9.13,3.01,7.3,5.37,15.94,7.26,23.12,5.07,8.63-2.64,13.59-10.22,13.59-20.79v-88.34c0-1.06,.86-1.91,1.91-1.91h27.17c1.05,0,1.91,.86,1.91,1.91v88.34Zm-6.52-100.25h-17.96V225.54c2.98-.15,5.97-.24,8.98-.24s6,.09,8.98,.24v192.47Zm181.53-183.85c-25.49,0-50.44,6.52-72.68,18.94-.24-13.82-1.89-42.16-10.24-76.5-10.01-41.2-31.87-98.38-79.43-144.28,115.54,12.52,209.94,101.14,228.25,217.22-20.47-10.08-43.06-15.37-65.9-15.37Z"/>
    </g>
  </g>
</svg>