<?xml version="1.0" encoding="UTF-8"?>
<svg id="Layer_2" data-name="Layer 2" xmlns="http://www.w3.org/2000/svg" viewBox="0 0 605.22 539.92">
  <defs>
    <style>
      .cls-1 {
        fill: #029ada;
      }

      .cls-2 {
        fill: #99cdfd;
      }

      .cls-3 {
        fill: #359645;
      }

      .cls-4 {
        fill: #fdbe00;
      }

      .cls-5 {
        fill: #d65238;
      }

      .cls-6 {
        fill: #bc3320;
      }

      .cls-7 {
        fill: #4abd62;
      }

      .cls-8 {
        fill: #00c8f6;
      }

      .cls-9 {
        fill: #f48b00;
      }

      .cls-10 {
        fill: #1f0e3a;
      }

      .cls-11 {
        fill: #60aae2;
      }
    </style>
  </defs>
  <g id="WEATHER">
    <g>
      <path class="cls-5" d="M529.98,289.16s-58.56,59.2-154.99,81.44c-20.51,4.74-42.73,7.8-66.46,8.26-135.33,2.64-194.21-5.03-224.64-87.28,0,0-.95-126.34,72.09-212.95,1.73-2.06,3.5-4.07,5.28-6.05C234.68-8.66,350.55-21.57,436.21,60.89c93.77,90.26,93.77,228.27,93.77,228.27Z"/>
      <path class="cls-6" d="M374.99,370.6c-20.51,4.74-42.73,7.8-66.46,8.26-135.33,2.64-194.21-5.03-224.64-87.28,0,0-.95-126.34,72.09-212.95,1.73-2.06,3.5-4.07,5.28-6.05l189.08,249.3s17.67,22.11,24.65,48.72Z"/>
      <path class="cls-4" d="M451.68,260.41s-26.22,54.81-89.94,78.76c-10,3.76-20.91,6.76-32.8,8.67-87.66,14.09-175.88-72.33-175.88-72.33,0,0,.49-80.7,54.82-141.46,1.61-1.8,3.27-3.58,4.97-5.34,62.61-64.69,150.53-41.4,192.52,12,42.26,53.74,46.31,119.7,46.31,119.7Z"/>
      <path class="cls-9" d="M361.74,339.17c-10,3.76-20.91,6.76-32.8,8.67-87.66,14.09-175.88-72.33-175.88-72.33,0,0,.49-80.7,54.82-141.46l142.46,187.83s5.4,6.75,11.4,17.29Z"/>
      <path class="cls-7" d="M382.89,230.42s-4.02,63.31-24.73,102.76c-11.1,21.13-26.99,35.42-49.63,29.44-64.9-17.12-74.36-113.54-74.36-113.54,0,0,.39-31.74,18.14-56.46,6.58-9.2,15.58-17.42,27.84-22.69,41.31-17.74,86.61,9.91,102.74,60.49Z"/>
      <path class="cls-3" d="M358.16,333.18c-11.1,21.13-26.99,35.42-49.63,29.44-64.9-17.12-74.36-113.54-74.36-113.54,0,0,.39-31.74,18.14-56.46l98.03,129.26s3.41,4.26,7.82,11.3Z"/>
      <path class="cls-8" d="M358.42,325.41c-.72,1.61-1.46,3.18-2.22,4.71-20.66,41.63-54.88,53.64-76.03,16.28-21.93-38.73,0-68.05,0-68.05,0,0,.36-21.29,14.42-29.98,2.23-1.38,4.8-2.44,7.78-3.05,19.09-3.91,30.35,14.95,30.35,14.95,0,0,46.04,19.75,25.7,65.14Z"/>
      <path class="cls-1" d="M356.2,330.12c-20.66,41.63-54.88,53.64-76.03,16.28-21.93-38.73,0-68.05,0-68.05,0,0,.36-21.29,14.42-29.98l55.75,73.51s2.43,3.05,5.86,8.24Z"/>
      <path class="cls-2" d="M592.5,414.06c3.94,13.7,4.67,28.29,1.46,42.16-2.2,9.47-6.13,18.76-12.77,25.87-9.3,9.97-23.78,14.82-37.21,12.46-11.66-2.04-22.21-9.47-28.29-19.59h-.01c-15.95,16.38-32.57,3.19-32.57,3.19-27.39,42.65-65.01,5.47-65.01,5.47l-14.08-24.16-78.23-134.21c-10.59-16.72,1.59-27.73,1.59-27.73-3.94-14.46-.17-30.52,8.8-42.52,8.97-12,22.74-20.01,37.38-23.19,14.64-3.18,30.07-1.73,44.35,2.81,9.03,2.86,17.82,7.06,24.63,13.64,10.03,9.7,14.77,23.51,18.73,36.89,9.16-2.6,19.86,1.7,25.59,9.3,10.1-9.31,26.48-9.74,39.77-6.28s24.9,11.46,35.7,19.94c9.39,7.38,18.49,15.32,25.56,24.94,7.08,9.62,12.05,21.11,12.31,33.05,.27,11.94-4.65,24.28-14.22,31.42,2.7,5.28,4.89,10.83,6.52,16.54Z"/>
      <path class="cls-11" d="M593.96,456.22c-2.2,9.47-6.13,18.76-12.77,25.87-9.3,9.97-23.78,14.82-37.21,12.46-11.66-2.04-22.21-9.47-28.29-19.59h-.01c-15.95,16.38-32.57,3.19-32.57,3.19-27.39,42.65-65.01,5.47-65.01,5.47l-14.08-24.16c8.92-27.76,27.22-47.15,27.22-47.15,0,0,36.74,25.27,71.7-14.38,0,0,24.07,47.18,89.56,16.13,3.94,13.7,4.67,28.29,1.46,42.16Z"/>
      <path class="cls-8" d="M315.5,507.02c-4,5.95-8.98,11.23-14.73,15.5-11.31,8.4-25.5,12.83-39.57,12.36-12.5-.41-24.68-4.57-35.56-10.73-10.89-6.16-21.04-13.51-30.03-22.2-27.62,19.14-63.57,25.76-96.2,17.72-32.62-8.05-61.37-30.63-76.92-60.42-4.39-8.4-7.79-17.44-8.81-26.86-.81-7.55-.49-15.49,2.16-22.54,.64-1.75,1.44-3.45,2.4-5.07-8.53-16.08-13.84-34.16-13.19-52.36,.64-18.2,7.59-36.47,20.7-49.1,13.11-12.63,32.61-18.94,50.27-14.48,15.86,4.01,28.85,16.06,36.93,30.29,0,0,7.64-10.51,22.79-6.16,.85-12.74,6.87-24.94,15.03-34.81,12.74-15.4,30.9-26.08,50.4-29.65s40.2,0,57.43,9.92c8.55,4.92,16.37,11.47,21.57,19.92,5.21,8.45,7.6,18.94,5.24,28.61,10.35,.86,20.93,10.92,23.41,21.16,16.4-6.2,36.62-2.24,48.82,10.47,12.21,12.72,16.14,32.93,9.59,49.39,0,0,24.55-11.38,48.97,5.65,42.65,29.74,20.74,137.74-100.7,113.39Z"/>
      <path class="cls-1" d="M326.47,487.15l-10.97,19.87c-4,5.95-8.98,11.23-14.73,15.5-11.31,8.4-25.5,12.83-39.57,12.36-12.5-.41-24.68-4.57-35.56-10.73-10.89-6.16-21.04-13.51-30.03-22.2-27.62,19.14-63.57,25.76-96.2,17.72-32.62-8.05-61.37-30.63-76.92-60.42-4.39-8.4-7.79-17.44-8.81-26.86-.81-7.55-.49-15.49,2.16-22.54,4.12-1.79,6.71-2.52,6.71-2.52,0,0,16.56,47.99,91.69,65.21,75.13,17.22,119.93-55.83,119.93-55.83,0,0,4.89,76.63,92.3,70.44Z"/>
      <path class="cls-10" d="M605.21,365.99c-.27-12.03-4.86-24.45-13.28-35.9-7.8-10.62-17.78-19.06-26.51-25.91-9.14-7.17-19.09-14.25-30.51-18.59-.32-10.01-2.08-39.99-11.8-77.96-10.85-42.4-34.14-102.9-83.42-150.34-21.04-20.26-44.43-35.43-69.5-45.09C346.18,2.95,321.17-1.07,295.8,.24c-54.12,2.81-105.14,29.5-143.64,75.16-38.4,45.54-56.28,101.89-64.51,141.15-6.53,31.12-8.2,56.23-8.62,67.94-.6-.17-1.19-.35-1.79-.5-18.59-4.7-40.17,1.48-54.96,15.73C8.88,312.64,.78,331.78,.05,352.24c-.6,16.97,3.73,35.07,12.54,52.49-3.77,7.69-5.07,17.16-3.88,28.19,.98,9.11,4.04,18.48,9.34,28.63,16.2,31.04,46.17,54.57,80.16,62.96,32.68,8.06,68.58,1.99,96.87-16.21,8.24,7.51,17.67,14.29,28.09,20.19,12.61,7.14,25.35,10.97,37.86,11.38,.74,.02,1.47,.04,2.21,.04,14.52,0,28.83-4.71,40.51-13.38,5.35-3.97,10.06-8.7,14-14.01,11,2.03,21.46,3.05,31.32,3.05,17,0,32.26-3.01,45.62-9.02,9.93-4.47,17.69-10.09,23.76-16.03,6.04,4.82,18.51,13.1,32.95,13.1,1.34,0,2.69-.07,4.05-.22,11.12-1.23,20.88-7.45,29.07-18.5,7.39,3.73,19.04,5.8,30.24-2.51,6.98,8.85,17.12,15.1,28.36,17.07,2.59,.45,5.19,.67,7.79,.67,12.69,0,25.2-5.28,33.94-14.65,6.58-7.05,11.28-16.52,13.98-28.16,4.41-19.04,2.04-39.67-6.65-58.52,8.39-7.96,13.31-20.16,13.03-32.84ZM97.49,218.37c8-38.06,25.31-92.64,62.32-136.51C196.51,38.33,244.99,12.9,296.32,10.23c49.69-2.58,96.87,16.18,136.43,54.26,47.51,45.74,70.05,104.28,80.6,145.34,8.54,33.25,10.81,60.72,11.42,72.76-14.4-3.07-27.83-1.22-37.31,5.08-6.15-5.71-14.68-8.79-22.67-8.18-2.12-6.81-4.65-13.9-8.19-20.48-.73-9.19-7.02-70.18-47.29-121.38-24.53-31.19-62.39-51-101.3-52.99-25.83-1.33-63.94,4.64-98.75,40.61-31.37,32.42-46.34,71.51-53.37,98.59-6.42,24.73-7.57,43.86-7.78,49.78-.4,.46-.8,.91-1.19,1.37-8.29,10.03-13.58,21.09-15.48,32.07-7.83-.81-13.64,1.74-17.4,4.36-6.77-10.03-15.47-17.93-25.11-22.92,.2-8.85,1.4-36.1,8.56-70.12Zm224.41,77.74c-3.93,4.94-7.58,13.84-3.85,24.6-2.05,.27-4.09,.65-6.1,1.18-3.93-8.77-12.06-16.13-20.81-18.85,.85-8.58-1.21-17.72-5.88-25.91,.42-5.14,3-23.81,18.12-26.9,11.89-2.44,20.2,6.14,23.49,10.39-5.63,11.16-7.45,23.76-4.97,35.49Zm10.51-44.39c-5.63-6.13-16.23-14.32-31.04-11.29-15.41,3.16-21.75,15.97-24.36,25.83-4.39-4.52-9.7-8.59-15.9-12.16-6.77-3.89-14.1-6.86-21.7-8.87,1.11-13.12,7.42-55.54,42.73-70.7,16.12-6.92,33.24-6.65,49.51,.77,19.6,8.95,35.58,27.33,44.5,50.94-1.22,.2-2.44,.43-3.64,.69-16.24,3.53-30.83,12.56-40.1,24.79Zm53.99-26.53c-9.64-27.25-27.93-48.62-50.61-58.98-18.63-8.51-39.09-8.81-57.61-.86-39.63,17.02-47.22,61.76-48.67,77.87-9.72-1.45-19.66-1.37-29.24,.38-15,2.75-29.43,9.62-41.34,19.44,2.67-25.61,13.53-85.39,57.51-130.84,32.19-33.27,67.3-38.79,91.05-37.58,36.06,1.85,71.19,20.24,93.95,49.19,27.74,35.27,38.66,76.38,42.82,99.26-6.36-5.59-14.51-9.93-24.83-13.21-11.11-3.53-22.32-5.1-33.03-4.67Zm-62.91,278.19c2.29-4.39,4.12-9.04,5.41-13.86,3.54-13.25,2.96-31.58-9.28-43.28-2-1.91-5.16-1.84-7.07,.16-1.91,2-1.84,5.16,.16,7.07,9.08,8.68,9.33,22.98,6.53,33.47-1.63,6.12-4.28,11.91-7.76,17.14-.08,.11-.16,.23-.23,.36-3.64,5.39-8.18,10.17-13.45,14.08-10.47,7.77-23.4,11.81-36.43,11.38-10.73-.35-22.23-3.84-33.26-10.09-10.94-6.19-20.71-13.41-29.01-21.45-1.72-1.66-4.36-1.88-6.33-.52-26.45,18.34-60.9,24.68-92.15,16.97-31.25-7.71-58.8-29.34-73.69-57.87-4.71-9.03-7.42-17.24-8.27-25.08-1.09-10.07,.22-18.32,3.89-24.53,.89-1.5,.93-3.35,.11-4.89-8.82-16.61-13.18-33.84-12.61-49.84,.63-17.9,7.62-34.54,19.18-45.67,12.36-11.91,30.25-17.1,45.57-13.24,13.32,3.36,25.65,13.54,33.81,27.92,.84,1.48,2.36,2.45,4.05,2.54,1.68,.1,3.31-.66,4.31-2.03,.21-.28,4.73-6.04,13.69-5.07,.01,.72,.03,1.44,.08,2.16,1.14,17.88,13.22,33.71,28.72,37.62,2.68,.68,5.4-.95,6.07-3.62,.68-2.68-.95-5.4-3.62-6.07-11.4-2.88-20.32-14.89-21.19-28.56-.78-12.21,4.16-25.42,13.91-37.22,11.92-14.41,29.21-24.59,47.44-27.92,18.23-3.33,37.93,.07,54.04,9.34,8.82,5.08,15.49,11.2,19.8,18.21,4.87,7.9,6.55,16.94,4.64,24.8-.35,1.42-.05,2.92,.8,4.11s2.19,1.94,3.64,2.06c7.89,.66,16.93,8.92,18.96,17.35,.34,1.39,1.26,2.58,2.52,3.25,1.27,.67,2.76,.76,4.1,.26,4.75-1.79,9.79-2.62,14.8-2.58,.16,.01,.32,.02,.48,.02,10.6,.22,21.02,4.36,28.18,11.82,10.85,11.31,14.37,29.43,8.55,44.08-.75,1.9-.27,4.05,1.21,5.46,1.48,1.41,3.67,1.77,5.53,.93,.9-.41,22.38-9.88,44.02,5.21,17.62,12.29,23.05,39.97,12.63,64.4-2.81,6.6-6.51,12.48-10.99,17.63-.14,.12-.29,.22-.42,.35-.26,.26-.48,.55-.67,.85-18.88,20.61-50.93,28.78-90.39,22.41Zm265.6-48.28c-2.29,9.9-6.18,17.84-11.55,23.59-8.13,8.71-20.96,13.01-32.7,10.95-11.73-2.06-22.34-10.47-27.02-21.42-2.53-5.93-2.84-11.73-.85-15.92,1.78-3.73,6.77-6.79,10.55-5.13,2.53,1.11,5.48-.05,6.59-2.58,1.11-2.53-.05-5.48-2.58-6.59-9.33-4.08-19.73,1.88-23.59,10-3.27,6.88-3.03,15.45,.68,24.14,.25,.59,.53,1.16,.81,1.74-11.35,8.98-21.98,1.32-23.22,.36-1.11-.88-2.53-1.24-3.93-1.02-1.39,.23-2.62,1.04-3.39,2.23-7.01,10.92-15.26,16.98-24.51,18.02-12.17,1.37-23.68-6.06-29.26-10.41,4.63-5.93,7.84-11.86,10.03-17,12.24-28.69,5.32-61.59-16.11-76.53-17.19-11.98-34.33-11.18-44.53-9.01,2.88-16.06-2.03-33.67-13.27-45.39-8.36-8.71-20.22-13.84-32.49-14.74-5.81-11.31,1.15-18.38,1.98-19.16,1.4-1.26,1.97-3.21,1.47-5.03-3.4-12.44-.34-27.08,7.97-38.2,7.83-10.48,20.39-18.24,34.44-21.3,12.95-2.81,27.4-1.89,41.77,2.68,9.79,3.11,17.2,7.19,22.67,12.48,9.24,8.94,13.67,22.05,17.41,34.71,.78,2.63,3.52,4.14,6.16,3.39,6.86-1.94,15.55,1.28,20.24,7.5,.85,1.13,2.14,1.84,3.54,1.97,1.41,.13,2.8-.35,3.84-1.3,8.89-8.2,23.97-8.02,35.11-5.12,12.66,3.3,23.76,11.1,33.87,19.04,8.2,6.44,17.53,14.32,24.62,23.97,5.02,6.83,11.06,17.61,11.34,30.2,.25,11.04-4.43,21.5-12.21,27.3-1.95,1.46-2.57,4.11-1.46,6.28,9.03,17.7,11.72,37.34,7.56,55.29Z"/>
    </g>
  </g>
</svg>